<?xml version="1.0" encoding="utf-8" standalone="no"?>
<!DOCTYPE svg PUBLIC "-//W3C//DTD SVG 1.1//EN" 
 "http://www.w3.org/Graphics/SVG/1.1/DTD/svg11.dtd">
<svg version="1.1"
  xmlns="http://www.w3.org/2000/svg"
  xmlns:xlink="http://www.w3.org/1999/xlink"
  width="1200" height="800"
  viewBox="0 0 1200 800">
<title>circle_arc_bezier</title>
<g stroke="#f33" stroke-width="0.7" fill="none">
<path d="M200,200 c0,25 -25,50 -50,50" />
<path d="M150,250 c-25,0 -50,-25 -50,-50" />
<path d="M100,200 c0,-25 25,-50 50,-50" />
<path d="M150,150 c25,0 50,25 50,50" />
</g>
<g stroke="#33f" stroke-width="0.7" fill="none">
<path d="M250,350 a50,50 0 0,0 50,-50" />
<path d="M200,300 a50,50 0 0,0 50,50" />
<path d="M250,250 a50,50 0 0,0 -50,50" />
<path d="M300,300 a50,50 0 0,0 -50,-50" />
</g>
</svg>
